HIERARCHY
ROOT RootJoint
{
    OFFSET   0.000000   0.000000   0.000000
    CHANNELS 6 Xposition Yposition Zposition Xrotation Yrotation Zrotation
    JOINT lHip
    {
        OFFSET   0.100000  -0.051395   0.000000
        CHANNELS 3 Xrotation Yrotation Zrotation
        JOINT lKnee
        {
            OFFSET   0.000000  -0.410000   0.000000
            CHANNELS 3 Xrotation Yrotation Zrotation
            JOINT lAnkle
            {
                OFFSET   0.000000  -0.390000   0.000000
                CHANNELS 3 Xrotation Yrotation Zrotation
                JOINT lToeJoint
                {
                    OFFSET   0.000000  -0.050000   0.130000
                    CHANNELS 3 Xrotation Yrotation Zrotation
                    End Site
                    {
                        OFFSET   0.010000   0.002000   0.060000
                    }
                }
            }
        }
    }
    JOINT rHip
    {
        OFFSET  -0.100000  -0.051395   0.000000
        CHANNELS 3 Xrotation Yrotation Zrotation
        JOINT rKnee
        {
            OFFSET   0.000000  -0.410000   0.000000
            CHANNELS 3 Xrotation Yrotation Zrotation
            JOINT rAnkle
            {
                OFFSET   0.000000  -0.390000   0.000000
                CHANNELS 3 Xrotation Yrotation Zrotation
                JOINT rToeJoint
                {
                    OFFSET   0.000000  -0.050000   0.130000
                    CHANNELS 3 Xrotation Yrotation Zrotation
                    End Site
                    {
                        OFFSET  -0.010000   0.002000   0.060000
                    }
                }
            }
        }
    }
    JOINT pelvis_lowerback
    {
        OFFSET   0.000000   0.093605   0.000000
        CHANNELS 3 Xrotation Yrotation Zrotation
        JOINT lowerback_torso
        {
            OFFSET   0.000000   0.100000   0.000000
            CHANNELS 3 Xrotation Yrotation Zrotation
            JOINT torso_head
            {
                OFFSET   0.000000   0.282350   0.000000
                CHANNELS 3 Xrotation Yrotation Zrotation
                End Site
                {
                    OFFSET   0.000000   0.192650   0.000000
                }
            }
            JOINT lTorso_Clavicle
            {
                OFFSET   0.001000   0.157500   0.000000
                CHANNELS 3 Xrotation Yrotation Zrotation
                JOINT lShoulder
                {
                    OFFSET   0.117647   0.000000   0.000000
                    CHANNELS 3 Xrotation Yrotation Zrotation
                    JOINT lElbow
                    {
                        OFFSET   0.245000   0.000000   0.000000
                        CHANNELS 3 Xrotation Yrotation Zrotation
                        JOINT lWrist
                        {
                            OFFSET   0.240000   0.000000   0.000000
                            CHANNELS 3 Xrotation Yrotation Zrotation
                            End Site
                            {
                                OFFSET   0.116353  -0.002500   0.000000
                            }
                        }
                    }
                }
            }
            JOINT rTorso_Clavicle
            {
                OFFSET  -0.001000   0.157500   0.000000
                CHANNELS 3 Xrotation Yrotation Zrotation
                JOINT rShoulder
                {
                    OFFSET  -0.117647   0.000000   0.000000
                    CHANNELS 3 Xrotation Yrotation Zrotation
                    JOINT rElbow
                    {
                        OFFSET  -0.245000   0.000000   0.000000
                        CHANNELS 3 Xrotation Yrotation Zrotation
                        JOINT rWrist
                        {
                            OFFSET  -0.240000   0.000000   0.000000
                            CHANNELS 3 Xrotation Yrotation Zrotation
                            End Site
                            {
                                OFFSET  -0.116353  -0.002500   0.000000
                            }
                        }
                    }
                }
            }
        }
    }
}
MOTION
Frames: 14
Frame Time:   0.016667
  1.467674   0.820593   2.376348 -95.204161  86.286990  84.653031 -34.544574  20.238855  -1.758629  22.360716   6.685197   3.224878   3.524810   2.627069  16.797240   0.000000  -0.000003   0.000000  20.636638 -25.052071   4.198773  20.719112   4.451923  -6.826834   9.502094   1.790596  15.192150   0.000007   0.000004   0.000001   1.921208   2.908516   1.843323   7.170431  11.737532   7.252815  10.848495  30.576062 -14.759101  -0.222821   7.815726 -13.521599  15.857357  13.305293 -53.686639 -170.379684 -78.344791 -174.415729  50.399212  -0.688438 -15.826810  -0.075445   4.937651  11.165583   8.011893  22.291523  17.029176 -118.252914  83.586871 129.952090  18.066210   6.340172  -4.294589
  1.492962   0.819209   2.370192 -120.635409  85.958960 111.005448 -33.331545  20.254846  -4.681657  23.999310   6.892699   4.675191   3.262549   2.507561  20.048081   0.000000  -0.000006   0.000000  16.888960 -26.197060   1.519016  27.720453   4.762318  -7.398836  15.549298   2.854304  13.443027   0.000004   0.000006  -0.000001   1.881569   2.732649   1.617437   7.111248  11.017035   6.356103  11.641480  30.023483 -14.738695  -0.195384   7.804820 -14.233832  14.615420  13.258117 -53.894015 -170.399690 -78.310052 -174.496904  49.200114  -0.218751 -15.560749  -0.103612   4.429018  11.529567   6.528105  21.990821  18.961109 -121.417681  83.349990 133.174552  18.063851   6.409448  -5.113905
  1.518326   0.818181   2.363992 -139.401617  84.932900 130.667609 -32.002144  20.209092  -7.504428  25.556566   7.083039   6.000497   2.814002   2.324430  22.920443   0.000000  -0.000008   0.000000  12.986862 -26.995908  -1.211773  34.740027   4.959151  -7.990843  21.568647   3.699959  11.577420   0.000001   0.000008  -0.000002   1.846994   2.553545   1.400776   7.061682  10.285290   5.496995  12.388679  29.425272 -14.715486  -0.173353   7.725614 -14.869728  13.401527  13.022486 -54.141380 -170.418473 -78.278525 -174.567711  48.015366   0.178976 -15.364627  -0.127884   3.942794  11.884089   5.086829  21.540351  20.977661 -124.339570  83.095512 136.150524  18.057188   6.487668  -5.918589
  1.544113   0.819109   2.357551 -151.691070  83.206141 143.713041 -30.033213  20.076193  -9.774430  26.692273   6.978143   6.668914   1.308374   1.853934  23.708418   0.000002  -0.000007   0.000001   8.717495 -26.618201  -3.674374  41.830035   4.857819  -8.511916  27.266392   4.197088   9.573604   0.000004   0.000007  -0.000001   1.843442   2.355857   1.235316   7.117001   9.486304   4.839131  12.902606  28.574592 -14.715856  -0.181345   7.272484 -15.085788  12.338400  11.732995 -54.616544 -170.432036 -78.264688 -174.582982  46.920601   0.212298 -15.602436  -0.146156   3.580611  12.188911   3.837455  20.469880  23.502187 -126.969883  82.833249 138.814991  18.022716   6.615191  -6.642307
  1.569684   0.820438   2.351037 -158.377215  81.296244 151.146839 -27.923373  19.799149 -11.836342  27.671638   6.824124   7.083541  -0.361646   1.333440  23.984395   0.000005  -0.000005   0.000001   4.480878 -25.680985  -5.952480  48.644316   4.559168  -8.922999  32.156717   4.416550   7.739019   0.000007   0.000005   0.000000   1.855124   2.172149   1.080837   7.222659   8.744823   4.223697  13.390902  27.719572 -14.836379  -0.196804   6.736223 -15.212744  11.311483  10.157615 -55.140269 -170.466266 -78.225179 -174.617255  45.880315   0.116343 -15.954797  -0.164032   3.231574  12.525290   2.782930  19.294992  25.968253 -129.107943  82.593072 140.976382  17.958956   6.750567  -7.380259
  1.593644   0.822009   2.344361 -161.106081  79.724924 154.712294 -25.653670  19.092713 -13.326838  28.204303   6.666893   6.744473  -1.894496   0.873855  23.593636   0.000002  -0.000005   0.000001   0.588207 -23.425020  -7.724982  53.886342   3.718890  -8.869795  32.871350   4.269770   7.099320   0.000000   0.000005   0.000001   1.921596   2.083924   0.935439   7.533872   8.389020   3.630997  13.980359  27.089216 -15.621340  -0.218289   6.116391 -15.269629  10.364983   8.027483 -55.610686 -170.616003 -78.026724 -174.808211  45.047080  -0.351883 -16.499850  -0.189910   2.830963  13.085435   2.326943  18.365667  27.801550 -129.580146  82.536924 141.432283  17.755819   6.879486  -8.276932
  1.617312   0.823623   2.337657 -162.783185  78.209414 157.243847 -23.382213  18.268020 -14.677714  28.654294   6.504908   6.269423  -3.406215   0.438725  23.072575   0.000000  -0.000006   0.000001  -3.113577 -20.856327  -9.221015  58.840862   2.798854  -8.662056  32.824690   4.073134   6.678546  -0.000008   0.000005   0.000002   1.997915   2.012885   0.791780   7.880342   8.100196   3.044183  14.576211  26.492019 -16.517205  -0.241177   5.481377 -15.313958   9.421588   5.802600 -56.100290 -170.780065 -77.799249 -175.020998  44.246499  -0.880964 -17.086640  -0.213478   2.420740  13.685925   2.000689  17.476491  29.510895 -129.763208  82.515222 141.591837  17.529044   7.010515  -9.202212
  1.640652   0.826171   2.330351 -165.418852  77.054347 160.367795 -21.507251  16.578628 -15.727770  28.414847   6.673323   5.674253  -4.673865   0.286615  22.623080   0.000001  -0.000005   0.000000  -6.914246 -18.422871 -10.021346  61.596166   1.065947  -8.800358  28.307720   3.063661   5.899985   0.000000   0.000006   0.000000   1.950948   1.922546   0.766860   7.702461   7.734325   2.958969  15.737153  26.228017 -17.858479  -0.252439   5.177997 -15.324914   8.863015   2.964714 -56.282385 -170.839068 -77.719316 -175.091244  42.808843  -1.209997 -17.286350  -0.232942   2.234433  14.210332   2.405837  16.940636  30.739854 -126.149339  82.921179 137.895627  17.650503   6.923996  -9.508142
  1.664017   0.828995   2.322993 -167.726391  75.803864 163.105554 -19.567595  15.011783 -16.727536  28.003091   6.681346   5.273449  -5.845275   0.080004  22.168412   0.000002  -0.000005   0.000000 -10.603777 -16.066242 -10.568896  64.007155  -0.699332  -8.933124  24.046784   2.047161   4.967114   0.000007   0.000007  -0.000001   1.897201   1.810852   0.761093   7.494045   7.284283   2.952411  16.900452  25.966885 -19.196266  -0.261946   4.924288 -15.330807   8.309230   0.098510 -56.464010 -170.909575 -77.622071 -175.176012  41.297772  -1.505770 -17.493103  -0.249456   2.088964  14.683696   2.874319  16.385523  31.973702 -121.948205  83.308901 133.608002  17.887087   6.764021  -9.644595
  1.687516   0.833342   2.315352 -170.313323  74.147259 165.797879 -17.040840  14.253603 -17.767029  26.642384   5.785749   5.926093  -6.484180  -0.474031  21.698278  -0.000001  -0.000007   0.000000 -14.104004 -14.358195 -10.578806  64.538599  -2.620859  -9.449087  21.225134   0.706725   3.537447   0.000003   0.000007   0.000000   1.806587   1.581513   0.860822   7.124109   6.368379   3.379964  18.124097  25.829318 -20.559635  -0.261527   4.943760 -15.308573   7.821333  -2.932865 -56.519026 -171.044883 -77.429629 -175.342179  39.389323  -1.640572 -17.699434  -0.258572   2.168971  14.876981   3.644099  15.691123  33.234956 -116.248346  83.721976 127.798670  18.763278   6.210280  -8.845731
  1.711121   0.837937   2.307705 -172.609814  72.317525 168.103388 -14.483116  13.438205 -18.663092  25.144634   4.733907   6.568336  -7.006595  -1.090882  21.273185  -0.000005  -0.000008  -0.000001 -17.499532 -12.864621 -10.382747  64.438734  -4.546480 -10.050407  18.847301  -0.656446   1.944763  -0.000002   0.000007   0.000001   1.704902   1.315066   0.983327   6.715069   5.302308   3.896660  19.283647  25.705640 -21.839037  -0.260219   4.995949 -15.263328   7.335439  -5.916326 -56.555754 -171.217187 -77.181106 -175.544858  37.426927  -1.766995 -17.907960  -0.266132   2.257235  15.020834   4.537697  14.977049  34.458637 -109.830790  84.063347 121.269660  19.750812   5.619057  -7.862082
  1.735177   0.842376   2.300309 -174.956567  70.045105 170.252936 -12.289881  11.692800 -18.805977  23.754051   3.835156   6.228055  -7.398685  -1.720875  21.133796  -0.000004  -0.000007  -0.000001 -20.566478 -11.866916  -9.922221  62.821774  -6.321394 -10.749730  17.606189  -2.079801   0.177261  -0.000004   0.000007   0.000001   1.577232   0.962929   1.127120   6.216983   3.889221   4.497629  20.045252  25.638500 -22.645432  -0.263749   4.954884 -15.119684   6.804767  -8.471759 -56.528941 -171.538924 -76.719536 -175.877660  35.565940  -2.034443 -18.121888  -0.270294   2.165449  15.172689   5.759662  14.228871  35.427340 -104.059958  84.282512 115.399286  20.671672   5.146271  -6.838070
  1.759314   0.846785   2.292958 -176.919363  67.671669 171.979440 -10.173256   9.783140 -18.749666  22.375410   2.977595   5.693452  -7.767610  -2.353139  21.043168  -0.000002  -0.000006   0.000000 -23.573857 -10.982794  -9.380185  60.904176  -8.046298 -11.522300  16.533310  -3.490503  -1.641854  -0.000006   0.000006   0.000002   1.445664   0.594921   1.274037   5.716997   2.408442   5.101735  20.733912  25.576871 -23.365236  -0.268002   4.896851 -14.958167   6.264376 -10.949662 -56.509483 -171.864990 -76.218811 -176.211284  33.722117  -2.321788 -18.345017  -0.273507   2.040920  15.325979   7.047605  13.491173  36.362021 -98.148964  84.433887 109.390927  21.586308   4.708354  -5.801783
  1.784217   0.849884   2.286235 -178.815999  64.921279 173.412554  -8.242801   8.129301 -18.088428  21.250997   1.808445   5.227782  -8.224671  -3.178364  20.862581  -0.000000  -0.000004   0.000000 -25.987784 -10.675167  -8.783401  57.485735  -8.747403 -12.068057  15.368606  -4.291708  -2.391252  -0.000005   0.000005   0.000001   1.311375   0.188285   1.386842   5.227549   0.768628   5.561519  20.447036  25.460986 -22.753279  -0.292336   4.282630 -14.571803   5.503484 -12.584224 -56.255501 -172.293124 -75.482066 -176.684786  31.920452  -2.635003 -17.922645  -0.271475   1.368436  15.746926   8.488154  12.758831  36.837254 -95.497602  84.480681 106.700092  21.992636   4.482974  -4.987501
